<svg width="335" height="69" viewBox="0 0 335 69" fill="none" xmlns="http://www.w3.org/2000/svg">
<g filter="url(#filter0_d_4_895)">
<rect x="4" width="326.354" height="60.9814" rx="7" fill="#CA4A94"/>
</g>
<path d="M121.99 37.0784C121.99 38.6018 121.621 39.926 120.882 41.051C120.144 42.176 119.066 43.0432 117.648 43.6526C116.242 44.262 114.531 44.5667 112.515 44.5667C111.625 44.5667 110.751 44.5081 109.896 44.3909C109.052 44.2737 108.238 44.1038 107.453 43.8811C106.679 43.6467 105.941 43.3596 105.238 43.0198V37.9573C106.457 38.4963 107.722 38.9827 109.035 39.4163C110.347 39.8499 111.648 40.0667 112.937 40.0667C113.828 40.0667 114.542 39.9495 115.082 39.7151C115.632 39.4807 116.031 39.1584 116.277 38.7483C116.523 38.3381 116.646 37.8694 116.646 37.342C116.646 36.6975 116.429 36.1467 115.996 35.6897C115.562 35.2327 114.964 34.8049 114.203 34.4065C113.453 34.0081 112.603 33.5803 111.654 33.1233C111.056 32.842 110.406 32.5022 109.703 32.1038C109 31.6936 108.332 31.1956 107.699 30.6096C107.066 30.0237 106.544 29.3147 106.134 28.4827C105.736 27.6389 105.537 26.6311 105.537 25.4592C105.537 23.9241 105.888 22.6116 106.591 21.5217C107.294 20.4319 108.296 19.5999 109.597 19.0256C110.91 18.4397 112.457 18.1467 114.238 18.1467C115.574 18.1467 116.845 18.3049 118.052 18.6213C119.271 18.926 120.542 19.3713 121.867 19.9573L120.109 24.1936C118.925 23.7131 117.865 23.344 116.927 23.0862C115.99 22.8167 115.035 22.6819 114.062 22.6819C113.382 22.6819 112.802 22.7932 112.322 23.0159C111.841 23.2268 111.478 23.5315 111.232 23.9299C110.986 24.3167 110.863 24.7678 110.863 25.2834C110.863 25.8928 111.039 26.4084 111.39 26.8303C111.753 27.2405 112.292 27.6389 113.007 28.0256C113.734 28.4124 114.636 28.8635 115.714 29.3792C117.027 30.0002 118.146 30.6506 119.072 31.3303C120.009 31.9983 120.73 32.7893 121.234 33.7034C121.738 34.6057 121.99 35.7307 121.99 37.0784ZM144.261 24.5627V44.2151H140.148L139.427 41.7014H139.146C138.724 42.3694 138.197 42.9143 137.564 43.3362C136.931 43.7581 136.234 44.0686 135.472 44.2678C134.71 44.467 133.919 44.5667 133.099 44.5667C131.693 44.5667 130.468 44.3206 129.425 43.8284C128.382 43.3245 127.568 42.5452 126.982 41.4905C126.408 40.4358 126.121 39.0647 126.121 37.3772V24.5627H131.482V36.0413C131.482 37.4475 131.734 38.5081 132.238 39.2229C132.742 39.9377 133.544 40.2952 134.646 40.2952C135.736 40.2952 136.591 40.0491 137.212 39.5569C137.833 39.053 138.267 38.3206 138.513 37.3596C138.771 36.387 138.9 35.2034 138.9 33.8088V24.5627H144.261ZM155.248 16.8635V23.2268C155.248 23.9651 155.224 24.6975 155.177 25.4241C155.142 26.1506 155.095 26.7131 155.037 27.1116H155.248C155.763 26.303 156.466 25.6174 157.357 25.0549C158.248 24.4807 159.402 24.1936 160.82 24.1936C163.023 24.1936 164.81 25.0549 166.181 26.7776C167.552 28.5002 168.238 31.0256 168.238 34.3538C168.238 36.592 167.921 38.4729 167.289 39.9963C166.656 41.5081 165.771 42.6506 164.634 43.4241C163.498 44.1858 162.179 44.5667 160.679 44.5667C159.238 44.5667 158.101 44.3088 157.269 43.7932C156.437 43.2776 155.763 42.6975 155.248 42.053H154.878L153.982 44.2151H149.886V16.8635H155.248ZM159.097 28.4827C158.16 28.4827 157.416 28.676 156.865 29.0627C156.314 29.4495 155.91 30.0295 155.652 30.803C155.406 31.5764 155.271 32.5549 155.248 33.7385V34.3186C155.248 36.2288 155.529 37.6936 156.091 38.7131C156.654 39.7209 157.679 40.2249 159.167 40.2249C160.269 40.2249 161.142 39.7151 161.787 38.6956C162.443 37.676 162.771 36.2053 162.771 34.2834C162.771 32.3616 162.443 30.9143 161.787 29.9417C161.13 28.969 160.234 28.4827 159.097 28.4827ZM195.748 24.1936C197.974 24.1936 199.656 24.7678 200.792 25.9163C201.941 27.053 202.515 28.8811 202.515 31.4006V44.2151H197.136V32.7366C197.136 31.3303 196.896 30.2698 196.416 29.5549C195.935 28.8401 195.191 28.4827 194.183 28.4827C192.765 28.4827 191.757 28.9924 191.16 30.012C190.562 31.0198 190.263 32.467 190.263 34.3538V44.2151H184.902V32.7366C184.902 31.7991 184.796 31.0139 184.585 30.3811C184.375 29.7483 184.052 29.2737 183.619 28.9573C183.185 28.6409 182.628 28.4827 181.949 28.4827C180.953 28.4827 180.167 28.7346 179.593 29.2385C179.031 29.7307 178.626 30.4631 178.38 31.4358C178.146 32.3967 178.029 33.5745 178.029 34.969V44.2151H172.667V24.5627H176.763L177.484 27.0764H177.783C178.181 26.3967 178.679 25.8459 179.277 25.4241C179.886 25.0022 180.554 24.6917 181.281 24.4924C182.007 24.2932 182.746 24.1936 183.496 24.1936C184.937 24.1936 186.156 24.428 187.152 24.8967C188.16 25.3655 188.933 26.092 189.472 27.0764H189.947C190.533 26.0686 191.359 25.3362 192.425 24.8792C193.503 24.4221 194.611 24.1936 195.748 24.1936ZM213.396 24.5627V44.2151H208.035V24.5627H213.396ZM210.724 16.8635C211.521 16.8635 212.207 17.051 212.781 17.426C213.355 17.7893 213.642 18.4749 213.642 19.4827C213.642 20.4788 213.355 21.1702 212.781 21.5569C212.207 21.9319 211.521 22.1194 210.724 22.1194C209.916 22.1194 209.224 21.9319 208.65 21.5569C208.087 21.1702 207.806 20.4788 207.806 19.4827C207.806 18.4749 208.087 17.7893 208.65 17.426C209.224 17.051 209.916 16.8635 210.724 16.8635ZM227.318 40.2952C227.904 40.2952 228.472 40.2366 229.023 40.1194C229.585 40.0022 230.142 39.8557 230.693 39.6799V43.6702C230.119 43.928 229.404 44.1389 228.548 44.303C227.705 44.4788 226.779 44.5667 225.771 44.5667C224.599 44.5667 223.544 44.3792 222.607 44.0042C221.681 43.6174 220.949 42.9553 220.41 42.0178C219.882 41.0686 219.619 39.7502 219.619 38.0627V28.5881H217.052V26.3206L220.005 24.5276L221.552 20.3792H224.98V24.5627H230.482V28.5881H224.98V38.0627C224.98 38.8127 225.191 39.3752 225.613 39.7502C226.046 40.1135 226.615 40.2952 227.318 40.2952Z" fill="white"/>
<defs>
<filter id="filter0_d_4_895" x="0" y="0" width="334.354" height="68.9814" filterUnits="userSpaceOnUse" color-interpolation-filters="sRGB">
<feFlood flood-opacity="0" result="BackgroundImageFix"/>
<feColorMatrix in="SourceAlpha" type="matrix" values="0 0 0 0 0 0 0 0 0 0 0 0 0 0 0 0 0 0 127 0" result="hardAlpha"/>
<feOffset dy="4"/>
<feGaussianBlur stdDeviation="2"/>
<feComposite in2="hardAlpha" operator="out"/>
<feColorMatrix type="matrix" values="0 0 0 0 0 0 0 0 0 0 0 0 0 0 0 0 0 0 0.25 0"/>
<feBlend mode="normal" in2="BackgroundImageFix" result="effect1_dropShadow_4_895"/>
<feBlend mode="normal" in="SourceGraphic" in2="effect1_dropShadow_4_895" result="shape"/>
</filter>
</defs>
</svg>
