<svg width="208" height="48" viewBox="0 0 208 48" fill="none" xmlns="http://www.w3.org/2000/svg">
<path d="M64.3634 47.3539H48.1937L35.489 17.2196L46.3038 4.40991L64.4684 47.3539H64.3634Z" fill="#573381"/>
<path d="M26.0393 34.2292H43.0489L18.8995 47.3539L25.9344 34.2292H26.0393Z" fill="#573381"/>
<path d="M31.7093 12.8097C35.2792 12.8097 38.2192 9.97476 38.2192 6.40485C38.2192 2.83493 35.2792 0 31.7093 0C28.1394 0 25.1995 2.83493 25.1995 6.40485C25.1995 9.97476 28.1394 12.8097 31.7093 12.8097Z" fill="#573381"/>
<path d="M21.8395 23.0993L0 47.3538H18.8996L35.1742 17.2195C30.1343 17.2195 25.3044 19.3194 21.8395 23.0993Z" fill="#573381"/>
<path d="M77.278 25.5143H73.4981V8.81968L75.3881 6.71973H77.278V25.4093V25.5143Z" fill="#573381"/>
<path d="M173.246 25.5143H169.466V8.81968L171.356 6.71973H173.246V25.4093V25.5143Z" fill="#573381"/>
<path d="M97.4379 6.82495V25.6195H93.658L85.0482 12.8098V25.6195H81.2682V9.23989L83.2632 6.82495H85.1532L93.763 19.7396V9.23989L95.6529 6.82495H97.5429H97.4379Z" fill="#573381"/>
<path d="M100.168 6.82495H114.132V9.86988H109.092V25.6195H105.313V9.86988H100.273V6.82495H100.168Z" fill="#573381"/>
<path d="M127.467 9.86965H120.222V14.5945H126.627V17.5345H120.222V22.4694H127.467V25.5143H116.442V9.55466L118.962 6.71973H127.572V9.76465L127.467 9.86965Z" fill="#573381"/>
<path d="M148.571 12.3896H144.162C143.322 10.8146 141.747 9.97467 139.647 9.97467C136.182 9.97467 133.872 12.3896 133.872 16.0645C133.872 19.7394 136.287 22.2594 139.857 22.2594C143.427 22.2594 144.687 20.5794 145.212 17.9545H138.702V15.1195H148.991V18.3745C148.256 22.1544 144.792 25.7243 139.647 25.7243C134.502 25.7243 129.882 21.7344 129.882 16.1695C129.882 10.6047 134.082 6.61475 139.647 6.61475C145.212 6.61475 147.311 8.7147 148.571 12.4946V12.3896Z" fill="#573381"/>
<path d="M159.071 6.82495C163.691 6.82495 166.001 9.44989 166.001 12.5998C166.001 15.7497 164.741 17.2197 161.696 17.9547L166.211 25.5145H161.801L157.601 18.1647H155.816V25.5145H152.036V6.82495H159.176H159.071ZM158.861 9.86988H155.711V15.3297H158.861C160.961 15.3297 161.906 14.2798 161.906 12.4948C161.906 10.7099 160.961 9.76488 158.861 9.76488V9.86988Z" fill="#573381"/>
<path d="M175.976 6.82495H189.94V9.86988H184.901V25.6195H181.121V9.86988H176.081V6.82495H175.976Z" fill="#573381"/>
<path d="M191.2 6.82495H195.505L199.6 15.4347L203.695 6.82495H208L201.595 19.0047V25.5145H197.815V19.0047L191.305 6.82495H191.2Z" fill="#573381"/>
<path d="M84.523 42.4188H82.108L81.1631 39.8988H76.7532L75.8082 42.4188H73.4982L77.8031 31.394H80.1131L84.523 42.4188ZM80.4281 38.0089L78.9581 33.914L77.4881 38.0089H80.5331H80.4281Z" fill="#573381"/>
<path d="M92.7128 38.3239L94.9177 39.0589C94.6027 40.2138 94.0777 41.1588 93.2378 41.7888C92.5028 42.4188 91.4528 42.6288 90.2978 42.6288C89.1429 42.6288 87.6729 42.1038 86.7279 41.1588C85.7829 40.2138 85.3629 38.7439 85.3629 37.0639C85.3629 35.384 85.8879 33.809 86.8329 32.759C87.7779 31.7091 89.0379 31.2891 90.6128 31.2891C92.1878 31.2891 93.0278 31.7091 93.8677 32.444C94.3927 32.864 94.7077 33.599 95.0227 34.439L92.8178 34.964C92.7128 34.439 92.3978 33.914 91.9778 33.599C91.5578 33.284 91.0328 33.074 90.5078 33.074C89.9828 33.074 89.0379 33.389 88.5129 33.914C87.9879 34.439 87.7779 35.489 87.7779 36.7489C87.7779 38.0089 87.9879 39.1639 88.5129 39.6889C89.0379 40.3188 89.6678 40.5288 90.5078 40.5288C91.3478 40.5288 91.5578 40.3188 92.0828 40.0039C92.5028 39.5839 92.8178 39.0589 93.0278 38.2189L92.7128 38.3239Z" fill="#573381"/>
<path d="M103.842 38.3239L106.047 39.0589C105.732 40.2138 105.207 41.1588 104.367 41.7888C103.632 42.4188 102.582 42.6288 101.428 42.6288C100.273 42.6288 98.8026 42.1038 97.8576 41.1588C96.9126 40.2138 96.4926 38.7439 96.4926 37.0639C96.4926 35.384 97.0176 33.809 97.9626 32.759C98.9076 31.7091 100.168 31.2891 101.743 31.2891C103.317 31.2891 104.157 31.7091 104.997 32.444C105.522 32.864 105.837 33.599 106.152 34.439L103.947 34.964C103.842 34.439 103.527 33.914 103.107 33.599C102.687 33.284 102.162 33.074 101.638 33.074C101.113 33.074 100.168 33.389 99.6426 33.914C99.1176 34.439 98.9076 35.489 98.9076 36.7489C98.9076 38.0089 99.1176 39.1639 99.6426 39.6889C100.168 40.3188 100.798 40.5288 101.638 40.5288C102.477 40.5288 102.687 40.3188 103.212 40.0039C103.632 39.5839 103.947 39.0589 104.157 38.2189L103.842 38.3239Z" fill="#573381"/>
<path d="M107.412 36.9589C107.412 35.804 107.622 34.859 107.937 34.124C108.147 33.599 108.567 33.074 108.987 32.654C109.407 32.234 109.932 31.919 110.457 31.7091C111.192 31.3941 111.927 31.2891 112.872 31.2891C114.447 31.2891 115.812 31.814 116.757 32.759C117.702 33.704 118.227 35.174 118.227 36.9589C118.227 38.7439 117.702 40.1089 116.757 41.1588C115.812 42.2088 114.447 42.6288 112.872 42.6288C111.297 42.6288 109.932 42.1038 108.987 41.1588C108.042 40.2138 107.517 38.7439 107.517 37.0639L107.412 36.9589ZM109.722 36.8539C109.722 38.1139 110.037 39.0589 110.562 39.6889C111.087 40.3188 111.822 40.6338 112.767 40.6338C113.712 40.6338 114.342 40.3188 114.972 39.6889C115.497 39.0589 115.812 38.1139 115.812 36.8539C115.812 35.594 115.497 34.649 114.972 34.019C114.447 33.389 113.712 33.074 112.767 33.074C111.822 33.074 111.087 33.389 110.562 34.019C110.037 34.649 109.722 35.594 109.722 36.8539Z" fill="#573381"/>
<path d="M119.907 31.394H122.112V37.3789C122.112 38.3239 122.112 38.9539 122.112 39.2689C122.112 39.6888 122.427 40.1088 122.742 40.3188C123.057 40.6338 123.582 40.7388 124.212 40.7388C124.842 40.7388 125.367 40.6338 125.682 40.3188C125.997 40.1088 126.207 39.7938 126.312 39.3739C126.312 38.9539 126.312 38.3239 126.312 37.4839V31.394H128.517V37.1689C128.517 38.5339 128.517 39.4789 128.307 40.0038C128.202 40.5288 127.992 41.0538 127.677 41.3688C127.362 41.7888 126.942 41.9988 126.417 42.3138C125.892 42.5238 125.157 42.6288 124.317 42.6288C123.477 42.6288 122.427 42.5238 121.902 42.3138C121.377 42.1038 120.957 41.7888 120.642 41.3688C120.327 40.9488 120.117 40.5288 120.012 40.1088C119.907 39.4789 119.802 38.5339 119.802 37.2739V31.394H119.907Z" fill="#573381"/>
<path d="M131.037 42.4188V31.394H133.242L137.757 38.7439V31.394H139.857V42.4188H137.652L133.242 35.279V42.4188H131.142H131.037Z" fill="#573381"/>
<path d="M144.582 42.4188V33.284H141.327V31.394H150.041V33.284H146.787V42.4188H144.582Z" fill="#573381"/>
<path d="M151.406 42.4188V31.394H153.611V42.4188H151.406Z" fill="#573381"/>
<path d="M155.816 42.4188V31.394H158.021L162.536 38.7439V31.394H164.636V42.4188H162.431L158.021 35.279V42.4188H155.921H155.816Z" fill="#573381"/>
<path d="M172.091 38.3239V36.434H176.921V40.8439C176.501 41.2639 175.766 41.6839 174.926 41.9988C174.086 42.3138 173.141 42.5238 172.196 42.5238C171.251 42.5238 169.991 42.3138 169.151 41.7888C168.311 41.2639 167.681 40.6339 167.261 39.6889C166.841 38.7439 166.631 37.7989 166.631 36.749C166.631 35.699 166.841 34.544 167.366 33.704C167.891 32.8641 168.521 32.1291 169.466 31.6041C170.201 31.2891 171.041 31.0791 172.091 31.0791C173.141 31.0791 174.506 31.3941 175.346 31.9191C176.081 32.4441 176.606 33.284 176.816 34.334L174.611 34.754C174.506 34.229 174.191 33.809 173.771 33.494C173.351 33.1791 172.826 33.0741 172.196 33.0741C171.251 33.0741 170.411 33.389 169.886 34.019C169.361 34.649 169.046 35.594 169.046 36.749C169.046 37.9039 169.361 39.0589 169.886 39.6889C170.411 40.3189 171.251 40.6339 172.196 40.6339C173.141 40.6339 173.141 40.6339 173.561 40.3189C173.981 40.1089 174.401 39.8989 174.716 39.6889V38.3239H172.196H172.091Z" fill="#573381"/>
<path d="M183.116 42.4188V31.394H185.321V42.4188H183.116Z" fill="#573381"/>
<path d="M187.421 42.4188V31.394H189.625L194.14 38.7439V31.394H196.24V42.4188H194.035L189.625 35.279V42.4188H187.526H187.421Z" fill="#573381"/>
<path d="M205.585 38.3239L207.79 39.0589C207.475 40.2138 206.95 41.1588 206.11 41.7888C205.375 42.4188 204.325 42.6288 203.17 42.6288C202.015 42.6288 200.545 42.1038 199.6 41.1588C198.655 40.2138 198.235 38.7439 198.235 37.0639C198.235 35.384 198.76 33.809 199.705 32.759C200.65 31.7091 201.91 31.2891 203.485 31.2891C205.06 31.2891 205.9 31.7091 206.74 32.444C207.265 32.864 207.58 33.599 207.895 34.439L205.69 34.964C205.585 34.439 205.27 33.914 204.85 33.599C204.43 33.284 203.905 33.074 203.38 33.074C202.855 33.074 201.91 33.389 201.385 33.914C200.86 34.439 200.65 35.489 200.65 36.7489C200.65 38.0089 200.86 39.1639 201.385 39.6889C201.91 40.3188 202.54 40.5288 203.38 40.5288C204.22 40.5288 204.43 40.3188 204.955 40.0039C205.375 39.5839 205.69 39.0589 205.9 38.2189L205.585 38.3239Z" fill="#573381"/>
</svg>
