<svg width="726" height="166" viewBox="0 0 726 166" fill="none" xmlns="http://www.w3.org/2000/svg">
<path d="M224.653 165.283H168.215L123.871 60.1031L161.618 15.3923L225.02 165.283H224.653Z" fill="white"/>
<path d="M90.8874 119.473H150.257L65.9667 165.283L90.5209 119.473H90.8874Z" fill="white"/>
<path d="M110.678 44.7108C123.138 44.7108 133.4 34.8158 133.4 22.3554C133.4 9.895 123.138 0 110.678 0C98.2173 0 87.9558 9.895 87.9558 22.3554C87.9558 34.8158 98.2173 44.7108 110.678 44.7108Z" fill="white"/>
<path d="M76.2282 80.6261L0 165.283H65.9667L122.771 60.1031C105.18 60.1031 88.3221 67.4328 76.2282 80.6261Z" fill="white"/>
<path d="M269.73 89.0548H256.537V30.7842L263.134 23.4546H269.73V88.6883V89.0548Z" fill="white"/>
<path d="M604.695 89.0548H591.501V30.7842L598.098 23.4546H604.695V88.6883V89.0548Z" fill="white"/>
<path d="M340.095 23.8213V89.4215H326.902L296.851 44.7107V89.4215H283.657V32.2504L290.62 23.8213H297.217L327.269 68.8985V32.2504L333.865 23.8213H340.462H340.095Z" fill="white"/>
<path d="M349.624 23.8213H398.366V34.4493H380.775V89.4215H367.581V34.4493H349.99V23.8213H349.624Z" fill="white"/>
<path d="M444.909 34.449H419.622V50.9407H441.977V61.2022H419.622V78.4268H444.909V89.0548H406.428V33.3496L415.224 23.4546H445.276V34.0826L444.909 34.449Z" fill="white"/>
<path d="M518.572 43.2446H503.179C500.247 37.7474 494.75 34.8155 487.421 34.8155C475.327 34.8155 467.264 43.2446 467.264 56.0715C467.264 68.8983 475.693 77.6939 488.154 77.6939C500.614 77.6939 505.012 71.8302 506.844 62.6682H484.122V52.7732H520.037V64.1341C517.472 77.3274 505.378 89.7878 487.421 89.7878C469.463 89.7878 453.338 75.8615 453.338 56.438C453.338 37.0144 467.997 23.0881 487.421 23.0881C506.844 23.0881 514.174 30.4178 518.572 43.6111V43.2446Z" fill="white"/>
<path d="M555.219 23.8213C571.345 23.8213 579.407 32.9833 579.407 43.9778C579.407 54.9722 575.009 60.103 564.382 62.6683L580.14 89.055H564.748L550.089 63.4013H543.859V89.055H530.665V23.8213H555.586H555.219ZM554.487 34.4493H543.492V53.5063H554.487C561.816 53.5063 565.114 49.8415 565.114 43.6113C565.114 37.3811 561.816 34.0828 554.487 34.0828V34.4493Z" fill="white"/>
<path d="M614.223 23.8213H662.965V34.4493H645.374V89.4215H632.181V34.4493H614.59V23.8213H614.223Z" fill="white"/>
<path d="M667.363 23.8213H682.389L696.681 53.8728L710.974 23.8213H726L703.645 66.3332V89.055H690.451V66.3332L667.729 23.8213H667.363Z" fill="white"/>
<path d="M295.018 148.058H286.589L283.29 139.263H267.898L264.6 148.058H256.537L271.563 109.578H279.625L295.018 148.058ZM280.725 132.666L275.594 118.373L270.463 132.666H281.091H280.725Z" fill="white"/>
<path d="M323.603 133.766L331.299 136.331C330.2 140.362 328.367 143.661 325.436 145.86C322.87 148.058 319.205 148.791 315.174 148.791C311.143 148.791 306.012 146.959 302.714 143.661C299.415 140.362 297.949 135.232 297.949 129.368C297.949 123.504 299.782 118.007 303.08 114.342C306.379 110.677 310.776 109.211 316.274 109.211C321.771 109.211 324.703 110.677 327.634 113.243C329.467 114.709 330.566 117.274 331.666 120.206L323.97 122.038C323.603 120.206 322.504 118.373 321.038 117.274C319.572 116.175 317.739 115.442 315.907 115.442C314.075 115.442 310.776 116.541 308.944 118.373C307.112 120.206 306.379 123.871 306.379 128.268C306.379 132.666 307.112 136.698 308.944 138.53C310.776 140.729 312.975 141.462 315.907 141.462C318.839 141.462 319.572 140.729 321.404 139.629C322.87 138.163 323.97 136.331 324.703 133.399L323.603 133.766Z" fill="white"/>
<path d="M362.45 133.766L370.146 136.331C369.047 140.362 367.214 143.661 364.283 145.86C361.717 148.058 358.052 148.791 354.021 148.791C349.99 148.791 344.859 146.959 341.561 143.661C338.262 140.362 336.796 135.232 336.796 129.368C336.796 123.504 338.629 118.007 341.927 114.342C345.225 110.677 349.623 109.211 355.12 109.211C360.618 109.211 363.55 110.677 366.481 113.243C368.314 114.709 369.413 117.274 370.513 120.206L362.817 122.038C362.45 120.206 361.351 118.373 359.885 117.274C358.419 116.175 356.586 115.442 354.754 115.442C352.922 115.442 349.623 116.541 347.791 118.373C345.958 120.206 345.225 123.871 345.225 128.268C345.225 132.666 345.958 136.698 347.791 138.53C349.623 140.729 351.822 141.462 354.754 141.462C357.686 141.462 358.419 140.729 360.251 139.629C361.717 138.163 362.817 136.331 363.55 133.399L362.45 133.766Z" fill="white"/>
<path d="M374.91 129.001C374.91 124.97 375.643 121.672 376.743 119.106C377.476 117.274 378.942 115.442 380.408 113.976C381.874 112.51 383.706 111.41 385.538 110.677C388.104 109.578 390.669 109.211 393.967 109.211C399.465 109.211 404.229 111.044 407.527 114.342C410.826 117.641 412.658 122.771 412.658 129.001C412.658 135.232 410.826 139.996 407.527 143.661C404.229 147.326 399.465 148.791 393.967 148.791C388.47 148.791 383.706 146.959 380.408 143.661C377.109 140.362 375.277 135.232 375.277 129.368L374.91 129.001ZM382.973 128.635C382.973 133.033 384.072 136.331 385.905 138.53C387.737 140.729 390.303 141.828 393.601 141.828C396.899 141.828 399.098 140.729 401.297 138.53C403.129 136.331 404.229 133.033 404.229 128.635C404.229 124.237 403.129 120.939 401.297 118.74C399.465 116.541 396.899 115.442 393.601 115.442C390.303 115.442 387.737 116.541 385.905 118.74C384.072 120.939 382.973 124.237 382.973 128.635Z" fill="white"/>
<path d="M418.522 109.578H426.218V130.467C426.218 133.766 426.218 135.965 426.218 137.064C426.218 138.53 427.317 139.996 428.417 140.729C429.516 141.828 431.349 142.195 433.548 142.195C435.746 142.195 437.579 141.828 438.678 140.729C439.778 139.996 440.511 138.896 440.877 137.43C440.877 135.965 440.877 133.766 440.877 130.834V109.578H448.573V129.734C448.573 134.499 448.573 137.797 447.84 139.629C447.474 141.462 446.741 143.294 445.641 144.394C444.542 145.86 443.076 146.593 441.244 147.692C439.411 148.425 436.846 148.791 433.914 148.791C430.982 148.791 427.317 148.425 425.485 147.692C423.653 146.959 422.187 145.86 421.087 144.394C419.988 142.928 419.255 141.462 418.888 139.996C418.522 137.797 418.155 134.499 418.155 130.101V109.578H418.522Z" fill="white"/>
<path d="M457.369 148.058V109.578H465.065L480.824 135.232V109.578H488.153V148.058H480.457L465.065 123.138V148.058H457.735H457.369Z" fill="white"/>
<path d="M504.645 148.058V116.175H493.284V109.578H523.702V116.175H512.341V148.058H504.645Z" fill="white"/>
<path d="M528.466 148.058V109.578H536.162V148.058H528.466Z" fill="white"/>
<path d="M543.859 148.058V109.578H551.555L567.314 135.232V109.578H574.643V148.058H566.947L551.555 123.138V148.058H544.225H543.859Z" fill="white"/>
<path d="M600.663 133.766V127.169H617.521V142.561C616.055 144.027 613.49 145.493 610.558 146.592C607.626 147.692 604.328 148.425 601.03 148.425C597.731 148.425 593.334 147.692 590.402 145.86C587.47 144.027 585.271 141.828 583.805 138.53C582.339 135.232 581.606 131.933 581.606 128.268C581.606 124.604 582.339 120.572 584.172 117.64C586.004 114.709 588.203 112.143 591.501 110.311C594.067 109.211 596.998 108.478 600.663 108.478C604.328 108.478 609.092 109.578 612.024 111.41C614.59 113.243 616.422 116.175 617.155 119.839L609.459 121.305C609.092 119.473 607.993 118.007 606.527 116.907C605.061 115.808 603.229 115.442 601.03 115.442C597.731 115.442 594.8 116.541 592.967 118.74C591.135 120.939 590.035 124.237 590.035 128.268C590.035 132.3 591.135 136.331 592.967 138.53C594.8 140.729 597.731 141.828 601.03 141.828C604.328 141.828 604.328 141.828 605.794 140.729C607.26 139.996 608.726 139.263 609.825 138.53V133.766H601.03H600.663Z" fill="white"/>
<path d="M639.144 148.058V109.578H646.84V148.058H639.144Z" fill="white"/>
<path d="M654.17 148.058V109.578H661.866L677.624 135.232V109.578H684.954V148.058H677.258L661.866 123.138V148.058H654.536H654.17Z" fill="white"/>
<path d="M717.571 133.766L725.267 136.331C724.168 140.362 722.336 143.661 719.404 145.86C716.838 148.058 713.174 148.791 709.142 148.791C705.111 148.791 699.98 146.959 696.682 143.661C693.384 140.362 691.918 135.232 691.918 129.368C691.918 123.504 693.75 118.007 697.048 114.342C700.347 110.677 704.744 109.211 710.242 109.211C715.739 109.211 718.671 110.677 721.603 113.243C723.435 114.709 724.534 117.274 725.634 120.206L717.938 122.038C717.571 120.206 716.472 118.373 715.006 117.274C713.54 116.175 711.708 115.442 709.875 115.442C708.043 115.442 704.744 116.541 702.912 118.373C701.08 120.206 700.347 123.871 700.347 128.268C700.347 132.666 701.08 136.698 702.912 138.53C704.744 140.729 706.943 141.462 709.875 141.462C712.807 141.462 713.54 140.729 715.372 139.629C716.838 138.163 717.938 136.331 718.671 133.399L717.571 133.766Z" fill="white"/>
</svg>
